<mxfile host="app.diagrams.net" modified="2023-06-15T01:50:28.592Z" agent="Mozilla/5.0 (Windows NT 10.0; Win64; x64) AppleWebKit/537.36 (KHTML, like Gecko) Chrome/114.0.0.0 Safari/537.36" etag="c9eMAKyTuRyKfb9POnE9" version="21.4.0" type="google">
  <diagram name="PÃ¡gina-1" id="_UGWLuysBSVrrhhp3OEl">
    <mxGraphModel grid="1" page="1" gridSize="10" guides="1" tooltips="1" connect="1" arrows="1" fold="1" pageScale="1" pageWidth="827" pageHeight="1169" math="0" shadow="0">
      <root>
        <mxCell id="0" />
        <mxCell id="1" parent="0" />
        <mxCell id="13N3AnCMt7MDwTcmpZE6-1" value="Dono" style="swimlane;fontStyle=1;align=center;verticalAlign=top;childLayout=stackLayout;horizontal=1;startSize=26;horizontalStack=0;resizeParent=1;resizeParentMax=0;resizeLast=0;collapsible=1;marginBottom=0;whiteSpace=wrap;html=1;" vertex="1" parent="1">
          <mxGeometry x="334" y="30" width="160" height="126" as="geometry" />
        </mxCell>
        <mxCell id="13N3AnCMt7MDwTcmpZE6-2" value="+ nome: string" style="text;strokeColor=none;fillColor=none;align=left;verticalAlign=top;spacingLeft=4;spacingRight=4;overflow=hidden;rotatable=0;points=[[0,0.5],[1,0.5]];portConstraint=eastwest;whiteSpace=wrap;html=1;" vertex="1" parent="13N3AnCMt7MDwTcmpZE6-1">
          <mxGeometry y="26" width="160" height="26" as="geometry" />
        </mxCell>
        <mxCell id="13N3AnCMt7MDwTcmpZE6-11" value="+ petnome: string" style="text;strokeColor=none;fillColor=none;align=left;verticalAlign=top;spacingLeft=4;spacingRight=4;overflow=hidden;rotatable=0;points=[[0,0.5],[1,0.5]];portConstraint=eastwest;whiteSpace=wrap;html=1;" vertex="1" parent="13N3AnCMt7MDwTcmpZE6-1">
          <mxGeometry y="52" width="160" height="26" as="geometry" />
        </mxCell>
        <mxCell id="13N3AnCMt7MDwTcmpZE6-3" value="" style="line;strokeWidth=1;fillColor=none;align=left;verticalAlign=middle;spacingTop=-1;spacingLeft=3;spacingRight=3;rotatable=0;labelPosition=right;points=[];portConstraint=eastwest;strokeColor=inherit;" vertex="1" parent="13N3AnCMt7MDwTcmpZE6-1">
          <mxGeometry y="78" width="160" height="8" as="geometry" />
        </mxCell>
        <mxCell id="13N3AnCMt7MDwTcmpZE6-4" value="+ passear(percurso: string):string" style="text;strokeColor=none;fillColor=none;align=left;verticalAlign=top;spacingLeft=4;spacingRight=4;overflow=hidden;rotatable=0;points=[[0,0.5],[1,0.5]];portConstraint=eastwest;whiteSpace=wrap;html=1;" vertex="1" parent="13N3AnCMt7MDwTcmpZE6-1">
          <mxGeometry y="86" width="160" height="40" as="geometry" />
        </mxCell>
        <mxCell id="13N3AnCMt7MDwTcmpZE6-5" value="cachorro" style="swimlane;fontStyle=1;align=center;verticalAlign=top;childLayout=stackLayout;horizontal=1;startSize=26;horizontalStack=0;resizeParent=1;resizeParentMax=0;resizeLast=0;collapsible=1;marginBottom=0;whiteSpace=wrap;html=1;" vertex="1" parent="1">
          <mxGeometry x="326" y="230" width="176" height="112" as="geometry" />
        </mxCell>
        <mxCell id="13N3AnCMt7MDwTcmpZE6-6" value="+ nome: string" style="text;strokeColor=none;fillColor=none;align=left;verticalAlign=top;spacingLeft=4;spacingRight=4;overflow=hidden;rotatable=0;points=[[0,0.5],[1,0.5]];portConstraint=eastwest;whiteSpace=wrap;html=1;" vertex="1" parent="13N3AnCMt7MDwTcmpZE6-5">
          <mxGeometry y="26" width="176" height="26" as="geometry" />
        </mxCell>
        <mxCell id="13N3AnCMt7MDwTcmpZE6-9" value="+ raca: string" style="text;strokeColor=none;fillColor=none;align=left;verticalAlign=top;spacingLeft=4;spacingRight=4;overflow=hidden;rotatable=0;points=[[0,0.5],[1,0.5]];portConstraint=eastwest;whiteSpace=wrap;html=1;" vertex="1" parent="13N3AnCMt7MDwTcmpZE6-5">
          <mxGeometry y="52" width="176" height="26" as="geometry" />
        </mxCell>
        <mxCell id="13N3AnCMt7MDwTcmpZE6-7" value="" style="line;strokeWidth=1;fillColor=none;align=left;verticalAlign=middle;spacingTop=-1;spacingLeft=3;spacingRight=3;rotatable=0;labelPosition=right;points=[];portConstraint=eastwest;strokeColor=inherit;" vertex="1" parent="13N3AnCMt7MDwTcmpZE6-5">
          <mxGeometry y="78" width="176" height="8" as="geometry" />
        </mxCell>
        <mxCell id="13N3AnCMt7MDwTcmpZE6-8" value="+ qtdComida(gramas: int): int" style="text;strokeColor=none;fillColor=none;align=left;verticalAlign=top;spacingLeft=4;spacingRight=4;overflow=hidden;rotatable=0;points=[[0,0.5],[1,0.5]];portConstraint=eastwest;whiteSpace=wrap;html=1;" vertex="1" parent="13N3AnCMt7MDwTcmpZE6-5">
          <mxGeometry y="86" width="176" height="26" as="geometry" />
        </mxCell>
        <mxCell id="13N3AnCMt7MDwTcmpZE6-10" value="Extends" style="endArrow=block;endSize=16;endFill=0;html=1;rounded=0;entryX=0.467;entryY=1.025;entryDx=0;entryDy=0;entryPerimeter=0;" edge="1" parent="1" source="13N3AnCMt7MDwTcmpZE6-5" target="13N3AnCMt7MDwTcmpZE6-4">
          <mxGeometry width="160" relative="1" as="geometry">
            <mxPoint x="330" y="200" as="sourcePoint" />
            <mxPoint x="490" y="200" as="targetPoint" />
          </mxGeometry>
        </mxCell>
      </root>
    </mxGraphModel>
  </diagram>
</mxfile>
